<svg
    xmlns="http://www.w3.org/2000/svg"
    width="1040"
    height="180"
    viewBox="0 0 1040 180"
    role="img"
    aria-labelledby="title"
>
    <title id="title">Neko AI Search logo</title>
    <defs>
        <linearGradient id="logoInk" x1="0" x2="1" y1="0" y2="1">
            <stop offset="0%" stop-color="#061a44"/>
            <stop offset="100%" stop-color="#0b2f73"/>
        </linearGradient>
        <filter id="softShadow" x="-20%" y="-20%" width="140%" height="140%">
            <feDropShadow
                dx="0"
                dy="8"
                stdDeviation="9"
                flood-color="#0a2a68"
                flood-opacity="0.18"
            />
        </filter>
    </defs>
    <g fill="none" filter="url(#softShadow)">
        <path
            d="
                M61 76C65 36 91 34 116 68C133 62 151 62 168 68
                C193 34 219 36 223 76C236 88 243 104 243 123
                C243 154 218 166 142 166C66 166 41 154 41 123
                C41 104 48 88 61 76Z
            "
            fill="#ffffff"
        />
        <path
            d="
                M67 81C71 47 92 45 115 74C132 67 152 67 169 74
                C192 45 213 47 217 81C229 91 235 105 235 122
                C235 147 214 158 142 158C70 158 49 147 49 122
                C49 105 55 91 67 81Z
            "
            fill="url(#logoInk)"
        />
        <path
            d="M58 118C60 152 84 169 142 169C200 169 224 152 226 118"
            stroke="#08285f"
            stroke-width="8"
            stroke-linecap="round"
        />
        <path
            d="M92 116C97 96 113 96 119 116"
            stroke="#ffffff"
            stroke-width="10"
            stroke-linecap="round"
        />
        <path
            d="M165 116C170 96 186 96 192 116"
            stroke="#ffffff"
            stroke-width="10"
            stroke-linecap="round"
        />
        <path
            d="M131 129C139 136 147 136 154 129"
            stroke="#ffffff"
            stroke-width="8"
            stroke-linecap="round"
        />
        <circle cx="82" cy="132" r="4" fill="#ffffff"/>
        <circle cx="202" cy="132" r="4" fill="#ffffff"/>
        <path
            d="M251 54V34M241 44H261"
            stroke="#08285f"
            stroke-width="8"
            stroke-linecap="round"
        />
    </g>
    <text
        x="300"
        y="125"
        fill="url(#logoInk)"
        font-family="Nunito Sans, Arial, sans-serif"
        font-size="78"
        font-weight="900"
        letter-spacing="0"
    >
        Neko AI Search
    </text>
</svg>
